<svg height="17" viewBox="0 0 17 17" width="17" xmlns="http://www.w3.org/2000/svg" xmlns:xlink="http://www.w3.org/1999/xlink"><filter id="a" filterUnits="userSpaceOnUse" height="17" width="17" x="0" y="0"><feFlood flood-color="#f14836" result="flood"/><feComposite in2="SourceGraphic" operator="in" result="composite"/><feBlend in2="SourceGraphic" result="blend"/></filter><path d="m1.92.975a1.284 1.284 0 0 1 -.961.96 1.284 1.284 0 0 1 -.959-.96 1.258 1.258 0 0 1 .959-.961 1.258 1.258 0 0 1 .961.961zm-.944 16.025a1.258 1.258 0 0 1 -.961-.96 1.258 1.258 0 0 1 .961-.961 1.259 1.259 0 0 1 .962.961 1.259 1.259 0 0 1 -.962.96zm2.779-14.207a1.258 1.258 0 0 1 -.961.96 1.258 1.258 0 0 1 -.961-.96 1.284 1.284 0 0 1 .961-.962 1.284 1.284 0 0 1 .961.962zm-.944 12.373a1.258 1.258 0 0 1 -.961-.96 1.26 1.26 0 0 1 .961-.962 1.26 1.26 0 0 1 .961.962 1.258 1.258 0 0 1 -.961.96zm1.835-1.852a1.26 1.26 0 0 1 -.962-.961 1.26 1.26 0 0 1 .962-.962 1.26 1.26 0 0 1 .961.962 1.26 1.26 0 0 1 -.961.961zm.944-8.669a1.261 1.261 0 0 1 -.944.961 1.261 1.261 0 0 1 -.946-.961 1.264 1.264 0 0 1 .944-.961 1.264 1.264 0 0 1 .946.961zm1.853 1.818a1.281 1.281 0 0 1 -.961.979 1.281 1.281 0 0 1 -.962-.979 1.285 1.285 0 0 1 .961-.963 1.285 1.285 0 0 1 .962.963zm-.962 5.015a1.258 1.258 0 0 1 -.961-.961 1.258 1.258 0 0 1 .961-.96 1.258 1.258 0 0 1 .961.96 1.258 1.258 0 0 1 -.961.961zm2.028-1.747a1.633 1.633 0 0 1 -1.259-1.241 1.635 1.635 0 0 1 1.259-1.241 1.635 1.635 0 0 1 1.258 1.241 1.633 1.633 0 0 1 -1.258 1.241zm2.027-2.289a1.281 1.281 0 0 1 -.979-.962 1.28 1.28 0 0 1 .979-.961 1.284 1.284 0 0 1 .961.961 1.285 1.285 0 0 1 -.961.962zm.944 3.075a1.257 1.257 0 0 1 -.962.961 1.257 1.257 0 0 1 -.961-.961 1.258 1.258 0 0 1 .961-.96 1.258 1.258 0 0 1 .962.96zm.874-4.945a1.238 1.238 0 0 1 -.961-.945 1.239 1.239 0 0 1 .961-.943 1.239 1.239 0 0 1 .961.943 1.238 1.238 0 0 1 -.961.945zm.961 6.781a1.239 1.239 0 0 1 -.944.961 1.24 1.24 0 0 1 -.944-.961 1.24 1.24 0 0 1 .944-.962 1.239 1.239 0 0 1 .944.962zm.891-8.6a1.258 1.258 0 0 1 -.961-.96 1.258 1.258 0 0 1 .961-.962 1.284 1.284 0 0 1 .962.962 1.284 1.284 0 0 1 -.962.961zm.962 10.434a1.258 1.258 0 0 1 -.962.961 1.258 1.258 0 0 1 -.961-.961 1.283 1.283 0 0 1 .961-.961 1.283 1.283 0 0 1 .962.962zm.856-12.268a1.285 1.285 0 0 1 -.961-.962 1.284 1.284 0 0 1 .961-.957 1.259 1.259 0 0 1 .961.961 1.26 1.26 0 0 1 -.961.958zm.976 14.104a1.258 1.258 0 0 1 -.961.961 1.258 1.258 0 0 1 -.961-.961 1.259 1.259 0 0 1 .961-.961 1.259 1.259 0 0 1 .961.961z" fill="#fff" fill-rule="evenodd" filter="url(#a)"/></svg>